# xmcd CD database file
#
# Track frame offsets:
#	150
#	21760
#	29438
#	51845
#	61243
#	79088
#	91233
#	122395
#	145903
#	175565
#	190308
#	216555
#	221623
#	234615
#	254345
#	268868
#
# Disc length: 3711 seconds
#
# Revision: 0
# Processed by: cddbd v1.5.1PL2 Copyright (c) Steve Scherf et al.
# Submitted via: CDex 1.51
#
DISCID=e50e7d10
DTITLE=The Great Composers No.59 - ファウスト
DYEAR=1900
DGENRE=Classical
TTITLE0=01 「葡萄酒でもビールでも」（学生たち・ワーグナー）
TTITLE1=02 「おお、尊いメダルよ」（ヴァランタン・ワーグナー・シーベル）
TTITLE2=03 「この土地を、私の父祖が生まれた国を去るまえに」（ヴァランタン）〜「さあ、諸・4 「金の子牛はいつも生きてる！」（メフィストフェレス・合唱）
TTITLE3=04 「金の子牛はいつも生きてる！」（メフィストフェレス・合唱）
TTITLE4=05 「美しいお嬢さん、お許し願えませんでしょうか？」（ファウスト・マルグリート・・6 「僕の告白をあの人に告げておくれ」（シーベル）
TTITLE5=06 「僕の告白をあの人に告げておくれ」（シーベル）
TTITLE6=07 「私を貫いているのはなんという道の不安なのだろう？」〜「おお、清らけく汚れを・8 「あれは何かしら？」〜「ああ、楽しげに自分を眺めているのだわ」（マルグリート・9 「もう遅いわ、さようなら！」（マルグリート・ファウスト）
TTITLE7=08 「あれは何かしら？」〜「ああ、楽しげに自分を眺めているのだわ」（マルグリート・9 「もう遅いわ、さようなら！」（マルグリート・ファウスト）
TTITLE8=09 「もう遅いわ、さようなら！」（マルグリート・ファウスト）
TTITLE9=10 「あの人は戻らない！」（マルグリート）
TTITLE10=11 「武器を捨てよう」（兵士たち・ヴァランタン・シーベル）
TTITLE11=12 「今さら何を待ってなさるのかね？」（メフィストフェレス・ファウスト）
TTITLE12=13 「“眠るふりするお前さんよ”」（メフィストフェレス）
TTITLE13=14 「なんだというのだね、あんた方は？」（ヴァランタン・メフィストフェレス・ファ・5 「早く！早く！でないと破滅してしまいますぞ」（メフィストフェレス・マルグリー・6 「救われたのだ！」（天使の合唱）
TTITLE14=15 「早く！早く！でないと破滅してしまいますぞ」（メフィストフェレス・マルグリー・6 「救われたのだ！」（天使の合唱）
TTITLE15=16 「救われたのだ！」（天使の合唱）
EXTD=
EXTT0=
EXTT1=
EXTT2=
EXTT3=
EXTT4=
EXTT5=
EXTT6=
EXTT7=
EXTT8=
EXTT9=
EXTT10=
EXTT11=
EXTT12=
EXTT13=
EXTT14=
EXTT15=
PLAYORDER=
